<svg width="24" height="24" viewBox="0 0 24 24" fill="none" xmlns="http://www.w3.org/2000/svg">
<path d="M14.5 18.4999C14.5 19.6045 13.5 20.4999 12 20.5C10.5 20.5001 9.5 19.6046 9.5 18.5M20 17L19.1716 16.1716C18.4214 15.4214 18 14.404 18 13.3431V10C18 7.38756 16.3304 5.16509 14 4.34141C14 4.34141 14 1.99993 12 1.99993C10 1.99993 10 4.34141 10 4.34141C7.66962 5.16509 6 7.38756 6 10V13.3431C6 14.404 5.57857 15.4214 4.82843 16.1716L4 17V18H20V17Z" stroke="black" stroke-width="1.5" stroke-linecap="round" stroke-linejoin="round"/>
</svg>
