<svg width="24" height="24" viewBox="0 0 24 24" fill="none" xmlns="http://www.w3.org/2000/svg">
<path d="M17 19V10.0623C17 9.36615 16.8183 8.68209 16.473 8.0777L15.2218 5.8882C15.0807 5.64118 15.0514 5.34574 15.1414 5.07583L15.4487 4.15395C15.4827 4.05198 15.5 3.9452 15.5 3.83772V3.4C15.5 3.17909 15.3209 3 15.1 3H8.9C8.67909 3 8.5 3.17909 8.5 3.4V3.83772C8.5 3.9452 8.51733 4.05198 8.55132 4.15395L8.85861 5.07583C8.94858 5.34574 8.91932 5.64118 8.77817 5.8882L7.52703 8.0777C7.18166 8.68209 7 9.36615 7 10.0623V19C7 20.1046 7.89543 21 9 21H15C16.1046 21 17 20.1046 17 19Z" stroke="black" stroke-width="1.5" stroke-linecap="round" stroke-linejoin="round"/>
<circle cx="12" cy="12.5" r="2.5" stroke="black" stroke-width="1.5" stroke-linecap="round" stroke-linejoin="round"/>
</svg>
