<svg width="24" height="24" viewBox="0 0 24 24" fill="none" xmlns="http://www.w3.org/2000/svg">
<path d="M11.5245 4.96332C11.6742 4.50269 12.3258 4.50269 12.4755 4.96332L13.9085 9.37314C13.9755 9.57914 14.1674 9.7186 14.384 9.71861L19.0209 9.71879C19.5052 9.71881 19.7066 10.3386 19.3148 10.6233L15.5636 13.3489C15.3884 13.4762 15.315 13.7019 15.382 13.9079L16.8147 18.3178C16.9643 18.7784 16.4371 19.1615 16.0452 18.8768L12.2939 16.1515C12.1186 16.0242 11.8814 16.0242 11.7061 16.1515L7.95476 18.8768C7.5629 19.1615 7.03569 18.7784 7.18534 18.3178L8.61803 13.9079C8.68496 13.7019 8.61163 13.4762 8.43641 13.3489L4.68525 10.6233C4.29342 10.3386 4.49479 9.71881 4.97913 9.71879L9.61595 9.71861C9.83255 9.7186 10.0245 9.57914 10.0915 9.37314L11.5245 4.96332Z" stroke="black" stroke-width="1.5" stroke-linejoin="round"/>
</svg>
