{
    "asset" : {
        "generator" : "Khronos glTF Blender I/O v1.7.33",
        "version" : "2.0"
    },
    "scene" : 0,
    "scenes" : [
        {
            "name" : "Scene",
            "nodes" : [
                0,
                1
            ]
        }
    ],
    "nodes" : [
        {
            "mesh" : 0,
            "name" : "Cube",
            "translation" : [
                0,
                1.1119250059127808,
                0
            ]
        },
        {
            "mesh" : 1,
            "name" : "Cube.001",
            "scale" : [
                1.4290484189987183,
                1.4290484189987183,
                1.4290484189987183
            ],
            "translation" : [
                2.2184693813323975,
                1.8377482891082764,
                -0.17003720998764038
            ]
        }
    ],
    "materials" : [
        {
            "doubleSided" : true,
            "name" : "Material",
            "pbrMetallicRoughness" : {
                "baseColorFactor" : [
                    0.10555537045001984,
                    0.07212775945663452,
                    0.8000000715255737,
                    1
                ],
                "metallicFactor" : 0.6513158082962036,
                "roughnessFactor" : 0.0857585221529007
            }
        },
        {
            "doubleSided" : true,
            "name" : "Material.001",
            "pbrMetallicRoughness" : {}
        }
    ],
    "meshes" : [
        {
            "name" : "Cube",
            "primitives" : [
                {
                    "attributes" : {
                        "POSITION" : 0,
                        "NORMAL" : 1,
                        "TEXCOORD_0" : 2
                    },
                    "indices" : 3,
                    "material" : 0
                }
            ]
        },
        {
            "name" : "Cube.001",
            "primitives" : [
                {
                    "attributes" : {
                        "POSITION" : 4,
                        "NORMAL" : 5,
                        "TEXCOORD_0" : 6
                    },
                    "indices" : 7,
                    "material" : 1
                }
            ]
        }
    ],
    "accessors" : [
        {
            "bufferView" : 0,
            "componentType" : 5126,
            "count" : 14,
            "max" : [
                1,
                1,
                1
            ],
            "min" : [
                -1,
                -1,
                -1
            ],
            "type" : "VEC3"
        },
        {
            "bufferView" : 1,
            "componentType" : 5126,
            "count" : 14,
            "type" : "VEC3"
        },
        {
            "bufferView" : 2,
            "componentType" : 5126,
            "count" : 14,
            "type" : "VEC2"
        },
        {
            "bufferView" : 3,
            "componentType" : 5123,
            "count" : 36,
            "type" : "SCALAR"
        },
        {
            "bufferView" : 4,
            "componentType" : 5126,
            "count" : 1650,
            "max" : [
                0.8395062685012817,
                0.8395062685012817,
                0.8395062685012817
            ],
            "min" : [
                -0.8395062685012817,
                -0.8395062685012817,
                -0.8395062685012817
            ],
            "type" : "VEC3"
        },
        {
            "bufferView" : 5,
            "componentType" : 5126,
            "count" : 1650,
            "type" : "VEC3"
        },
        {
            "bufferView" : 6,
            "componentType" : 5126,
            "count" : 1650,
            "type" : "VEC2"
        },
        {
            "bufferView" : 7,
            "componentType" : 5123,
            "count" : 9216,
            "type" : "SCALAR"
        }
    ],
    "bufferViews" : [
        {
            "buffer" : 0,
            "byteLength" : 168,
            "byteOffset" : 0
        },
        {
            "buffer" : 0,
            "byteLength" : 168,
            "byteOffset" : 168
        },
        {
            "buffer" : 0,
            "byteLength" : 112,
            "byteOffset" : 336
        },
        {
            "buffer" : 0,
            "byteLength" : 72,
            "byteOffset" : 448
        },
        {
            "buffer" : 0,
            "byteLength" : 19800,
            "byteOffset" : 520
        },
        {
            "buffer" : 0,
            "byteLength" : 19800,
            "byteOffset" : 20320
        },
        {
            "buffer" : 0,
            "byteLength" : 13200,
            "byteOffset" : 40120
        },
        {
            "buffer" : 0,
            "byteLength" : 18432,
            "byteOffset" : 53320
        }
    ],
    "buffers" : [
        {
            "byteLength" : 71752,
            "uri" : "data:application/octet-stream;base64,"
        }
    ]
}
