{
    "asset" : {
        "generator" : "Khronos glTF Blender I/O v1.7.33",
        "version" : "2.0"
    },
    "scene" : 0,
    "scenes" : [
        {
            "name" : "Scene",
            "nodes" : [
                0,
                1,
                2,
                3,
                4
            ]
        }
    ],
    "nodes" : [
        {
            "mesh" : 0,
            "name" : "Plane",
            "rotation" : [
                0.7071067690849304,
                0,
                0,
                0.7071068286895752
            ],
            "scale" : [
                0.02923535369336605,
                0.02923535369336605,
                0.02923535369336605
            ],
            "translation" : [
                -0.028390415012836456,
                0.06150442734360695,
                -0.006408693268895149
            ]
        },
        {
            "mesh" : 1,
            "name" : "Plane.001",
            "rotation" : [
                0.7071067690849304,
                0,
                0,
                0.7071068286895752
            ],
            "scale" : [
                0.02923535369336605,
                0.02923535369336605,
                0.02923535369336605
            ],
            "translation" : [
                -0.028390415012836456,
                0.003025658428668976,
                -0.0064086876809597015
            ]
        },
        {
            "mesh" : 2,
            "name" : "Plane.002",
            "rotation" : [
                0,
                0.7071068286895752,
                0.7071067690849304,
                1.0677015183091498e-07
            ],
            "scale" : [
                0.02923535369336605,
                0.02923535369336605,
                0.02923535369336605
            ],
            "translation" : [
                0.03009800612926483,
                0.061481330543756485,
                -0.006408693268895149
            ]
        },
        {
            "mesh" : 3,
            "name" : "Plane.004",
            "rotation" : [
                0.7071067690849304,
                0,
                0,
                0.7071068286895752
            ],
            "scale" : [
                0.02923535369336605,
                0.02923535369336605,
                0.02923535369336605
            ],
            "translation" : [
                -0.028390415012836456,
                -0.055461518466472626,
                -0.006408685818314552
            ]
        },
        {
            "mesh" : 4,
            "name" : "Plane.003",
            "rotation" : [
                0.7071067690849304,
                0,
                0,
                0.7071068286895752
            ],
            "scale" : [
                0.02923535369336605,
                0.02923535369336605,
                0.02923535369336605
            ],
            "translation" : [
                0.030169948935508728,
                0.003118075430393219,
                -0.0064086876809597015
            ]
        }
    ],
    "materials" : [
        {
            "doubleSided" : true,
            "name" : "red",
            "pbrMetallicRoughness" : {
                "baseColorFactor" : [
                    0.8962695598602295,
                    0.07818741351366043,
                    0.016807381063699722,
                    1
                ],
                "metallicFactor" : 0.49673202633857727,
                "roughnessFactor" : 0.28658536076545715
            }
        },
        {
            "doubleSided" : true,
            "name" : "purple",
            "pbrMetallicRoughness" : {
                "baseColorFactor" : [
                    0.3564002215862274,
                    0.10224173218011856,
                    1.0000001192092896,
                    1
                ],
                "metallicFactor" : 0.29878050088882446,
                "roughnessFactor" : 0.24390244483947754
            }
        },
        {
            "doubleSided" : true,
            "name" : "light red",
            "pbrMetallicRoughness" : {
                "baseColorFactor" : [
                    1.0000001192092896,
                    0.16513220965862274,
                    0.11953844130039215,
                    1
                ],
                "metallicFactor" : 0.14024391770362854,
                "roughnessFactor" : 0.25609755516052246
            }
        },
        {
            "doubleSided" : true,
            "name" : "green",
            "pbrMetallicRoughness" : {
                "baseColorFactor" : [
                    0.006512091960757971,
                    0.6104958057403564,
                    0.22322800755500793,
                    1
                ],
                "metallicFactor" : 0.47560974955558777,
                "roughnessFactor" : 0.26829269528388977
            }
        },
        {
            "doubleSided" : true,
            "name" : "blue",
            "pbrMetallicRoughness" : {
                "baseColorFactor" : [
                    0.014443845488131046,
                    0.49693313241004944,
                    0.9822508096694946,
                    1
                ],
                "metallicFactor" : 0.2073170691728592,
                "roughnessFactor" : 0.18292683362960815
            }
        }
    ],
    "meshes" : [
        {
            "name" : "Plane",
            "primitives" : [
                {
                    "attributes" : {
                        "POSITION" : 0,
                        "NORMAL" : 1,
                        "TEXCOORD_0" : 2
                    },
                    "indices" : 3,
                    "material" : 0
                }
            ]
        },
        {
            "name" : "Plane.001",
            "primitives" : [
                {
                    "attributes" : {
                        "POSITION" : 4,
                        "NORMAL" : 5,
                        "TEXCOORD_0" : 6
                    },
                    "indices" : 7,
                    "material" : 1
                }
            ]
        },
        {
            "name" : "Plane.002",
            "primitives" : [
                {
                    "attributes" : {
                        "POSITION" : 8,
                        "NORMAL" : 9,
                        "TEXCOORD_0" : 10
                    },
                    "indices" : 11,
                    "material" : 2
                }
            ]
        },
        {
            "name" : "Plane.004",
            "primitives" : [
                {
                    "attributes" : {
                        "POSITION" : 12,
                        "NORMAL" : 13,
                        "TEXCOORD_0" : 14
                    },
                    "indices" : 15,
                    "material" : 3
                }
            ]
        },
        {
            "name" : "Plane.005",
            "primitives" : [
                {
                    "attributes" : {
                        "POSITION" : 16,
                        "NORMAL" : 17,
                        "TEXCOORD_0" : 18
                    },
                    "indices" : 19,
                    "material" : 4
                }
            ]
        }
    ],
    "accessors" : [
        {
            "bufferView" : 0,
            "componentType" : 5126,
            "count" : 216,
            "max" : [
                1,
                0.23107503354549408,
                1
            ],
            "min" : [
                -1,
                0,
                -1
            ],
            "type" : "VEC3"
        },
        {
            "bufferView" : 1,
            "componentType" : 5126,
            "count" : 216,
            "type" : "VEC3"
        },
        {
            "bufferView" : 2,
            "componentType" : 5126,
            "count" : 216,
            "type" : "VEC2"
        },
        {
            "bufferView" : 3,
            "componentType" : 5123,
            "count" : 420,
            "type" : "SCALAR"
        },
        {
            "bufferView" : 4,
            "componentType" : 5126,
            "count" : 216,
            "max" : [
                1,
                0.23107503354549408,
                1
            ],
            "min" : [
                -1,
                0,
                -1
            ],
            "type" : "VEC3"
        },
        {
            "bufferView" : 5,
            "componentType" : 5126,
            "count" : 216,
            "type" : "VEC3"
        },
        {
            "bufferView" : 6,
            "componentType" : 5126,
            "count" : 216,
            "type" : "VEC2"
        },
        {
            "bufferView" : 7,
            "componentType" : 5123,
            "count" : 420,
            "type" : "SCALAR"
        },
        {
            "bufferView" : 8,
            "componentType" : 5126,
            "count" : 216,
            "max" : [
                1,
                0.23107503354549408,
                1
            ],
            "min" : [
                -1,
                0,
                -1
            ],
            "type" : "VEC3"
        },
        {
            "bufferView" : 9,
            "componentType" : 5126,
            "count" : 216,
            "type" : "VEC3"
        },
        {
            "bufferView" : 10,
            "componentType" : 5126,
            "count" : 216,
            "type" : "VEC2"
        },
        {
            "bufferView" : 11,
            "componentType" : 5123,
            "count" : 420,
            "type" : "SCALAR"
        },
        {
            "bufferView" : 12,
            "componentType" : 5126,
            "count" : 312,
            "max" : [
                1,
                0.23107503354549408,
                1
            ],
            "min" : [
                -1,
                0,
                -1
            ],
            "type" : "VEC3"
        },
        {
            "bufferView" : 13,
            "componentType" : 5126,
            "count" : 312,
            "type" : "VEC3"
        },
        {
            "bufferView" : 14,
            "componentType" : 5126,
            "count" : 312,
            "type" : "VEC2"
        },
        {
            "bufferView" : 15,
            "componentType" : 5123,
            "count" : 612,
            "type" : "SCALAR"
        },
        {
            "bufferView" : 16,
            "componentType" : 5126,
            "count" : 408,
            "max" : [
                1,
                0.23107503354549408,
                1
            ],
            "min" : [
                -1,
                0,
                -1
            ],
            "type" : "VEC3"
        },
        {
            "bufferView" : 17,
            "componentType" : 5126,
            "count" : 408,
            "type" : "VEC3"
        },
        {
            "bufferView" : 18,
            "componentType" : 5126,
            "count" : 408,
            "type" : "VEC2"
        },
        {
            "bufferView" : 19,
            "componentType" : 5123,
            "count" : 804,
            "type" : "SCALAR"
        }
    ],
    "bufferViews" : [
        {
            "buffer" : 0,
            "byteLength" : 2592,
            "byteOffset" : 0
        },
        {
            "buffer" : 0,
            "byteLength" : 2592,
            "byteOffset" : 2592
        },
        {
            "buffer" : 0,
            "byteLength" : 1728,
            "byteOffset" : 5184
        },
        {
            "buffer" : 0,
            "byteLength" : 840,
            "byteOffset" : 6912
        },
        {
            "buffer" : 0,
            "byteLength" : 2592,
            "byteOffset" : 7752
        },
        {
            "buffer" : 0,
            "byteLength" : 2592,
            "byteOffset" : 10344
        },
        {
            "buffer" : 0,
            "byteLength" : 1728,
            "byteOffset" : 12936
        },
        {
            "buffer" : 0,
            "byteLength" : 840,
            "byteOffset" : 14664
        },
        {
            "buffer" : 0,
            "byteLength" : 2592,
            "byteOffset" : 15504
        },
        {
            "buffer" : 0,
            "byteLength" : 2592,
            "byteOffset" : 18096
        },
        {
            "buffer" : 0,
            "byteLength" : 1728,
            "byteOffset" : 20688
        },
        {
            "buffer" : 0,
            "byteLength" : 840,
            "byteOffset" : 22416
        },
        {
            "buffer" : 0,
            "byteLength" : 3744,
            "byteOffset" : 23256
        },
        {
            "buffer" : 0,
            "byteLength" : 3744,
            "byteOffset" : 27000
        },
        {
            "buffer" : 0,
            "byteLength" : 2496,
            "byteOffset" : 30744
        },
        {
            "buffer" : 0,
            "byteLength" : 1224,
            "byteOffset" : 33240
        },
        {
            "buffer" : 0,
            "byteLength" : 4896,
            "byteOffset" : 34464
        },
        {
            "buffer" : 0,
            "byteLength" : 4896,
            "byteOffset" : 39360
        },
        {
            "buffer" : 0,
            "byteLength" : 3264,
            "byteOffset" : 44256
        },
        {
            "buffer" : 0,
            "byteLength" : 1608,
            "byteOffset" : 47520
        }
    ],
    "buffers" : [
        {
            "byteLength" : 49128,
            "uri" : "data:application/octet-stream;base64,"
        }
    ]
}
