<svg width="32" height="32" viewBox="0 0 32 32" fill="none" xmlns="http://www.w3.org/2000/svg">
<path d="M13.333 19.3337C13.333 18.9655 13.6315 18.667 13.9997 18.667H17.9997C18.3679 18.667 18.6663 18.9655 18.6663 19.3337V26.667H13.333V19.3337Z" stroke="#7C5FA0" stroke-width="2" stroke-linecap="round" stroke-linejoin="round"/>
<path d="M23.333 9.33366V6.66699M14.3997 5.20033L6.39967 11.2003C5.72819 11.7039 5.33301 12.4943 5.33301 13.3337V24.0003C5.33301 25.4731 6.52692 26.667 7.99967 26.667H23.9997C25.4724 26.667 26.6663 25.4731 26.6663 24.0003V13.3337C26.6663 12.4943 26.2712 11.7039 25.5997 11.2003L17.5997 5.20033C16.6515 4.48921 15.3478 4.48921 14.3997 5.20033Z" stroke="#7C5FA0" stroke-width="2" stroke-linecap="round" stroke-linejoin="round"/>
</svg>
